<svg width="59" height="94" viewBox="0 0 59 94" fill="none" xmlns="http://www.w3.org/2000/svg">
<path d="M23.623 44.2949C26.8457 42.5176 30.3613 41.6289 34.1699 41.6289C37.9785 41.6289 41.4746 42.5078 44.6582 44.2656C47.8418 46.0234 50.3613 48.4453 52.2168 51.5312C54.0723 54.5977 55 57.9766 55 61.668C55 64.4023 54.4531 67.0195 53.3594 69.5195C52.2852 72.0195 50.8203 74.1875 48.9648 76.0234C47.1289 77.8398 44.9219 79.2949 42.3438 80.3887C39.7656 81.4629 37.0605 82 34.2285 82C30.3809 82 26.8359 81.0723 23.5938 79.2168C20.3516 77.3613 17.8027 74.8809 15.9473 71.7754C14.1113 68.6504 13.1934 65.2812 13.1934 61.668C13.1934 58.0156 14.1211 54.6562 15.9766 51.5898C17.8516 48.5039 20.4004 46.0723 23.623 44.2949ZM34.0527 78.3379C37.0801 78.3379 39.8926 77.5664 42.4902 76.0234C45.0879 74.4609 47.1289 72.3906 48.6133 69.8125C50.1172 67.2344 50.8691 64.4609 50.8691 61.4922C50.8691 58.543 50.1367 55.8477 48.6719 53.4062C47.207 50.9453 45.1953 49.0117 42.6367 47.6055C40.0781 46.1797 37.2559 45.4668 34.1699 45.4668C31.0449 45.4668 28.1836 46.1797 25.5859 47.6055C23.0078 49.0117 20.9766 50.9453 19.4922 53.4062C18.0078 55.8672 17.2656 58.582 17.2656 61.5508C17.2656 64.5 18.0176 67.2734 19.5215 69.8711C21.0254 72.4492 23.0664 74.5098 25.6445 76.0527C28.2422 77.5762 31.0449 78.3379 34.0527 78.3379Z" fill="black"/>
<path d="M30.748 61.9609C31.5684 62.6055 32.2324 63.1621 32.7402 63.6309C33.248 64.0996 33.7949 64.7051 34.3809 65.4473C34.9863 66.1895 35.4355 67 35.7285 67.8789C36.0215 68.7578 36.168 69.7246 36.168 70.7793C36.168 75.2129 34.7227 78.4746 31.832 80.5645C30.7383 81.0723 29.7422 81.4434 28.8438 81.6777C27.9648 81.8926 26.9199 82 25.709 82H7.19336V41.6289H19.2344C19.6445 41.6289 20.2793 41.6191 21.1387 41.5996C22.0176 41.5801 22.6816 41.5703 23.1309 41.5703C27.1152 41.5703 29.7617 42.0488 31.0703 43.0059C34.4297 45.3301 36.1094 48.4258 36.1094 52.293C36.1094 53.1914 36.0508 54.002 35.9336 54.7246C35.8164 55.4277 35.582 56.209 35.2305 57.0684C34.8984 57.9277 34.3516 58.7676 33.5898 59.5879C32.8477 60.4082 31.9004 61.1992 30.748 61.9609ZM31.8906 52.4688C31.8906 50.6328 31.3242 49.0312 30.1914 47.6641C29.0781 46.2773 27.5059 45.584 25.4746 45.584L11.1484 45.5254V60.0859H19.7324C20.5527 60.0859 21.1973 60.0859 21.666 60.0859C22.1348 60.0664 22.7598 60.0371 23.541 59.998C24.3418 59.9395 24.9766 59.8711 25.4453 59.793C25.9141 59.6953 26.4707 59.5586 27.1152 59.3828C27.7793 59.207 28.3066 59.002 28.6973 58.7676C29.1074 58.5137 29.5371 58.1914 29.9863 57.8008C30.4355 57.4102 30.7773 56.9707 31.0117 56.4824C31.2656 55.9941 31.4707 55.4082 31.627 54.7246C31.8027 54.041 31.8906 53.2891 31.8906 52.4688ZM11.1484 78.2207L19.6738 78.3379C20.084 78.3379 20.6895 78.3477 21.4902 78.3672C22.291 78.3867 22.8965 78.3965 23.3066 78.3965C24.1465 78.3965 24.8691 78.377 25.4746 78.3379C26.0996 78.2793 26.7539 78.1621 27.4375 77.9863C28.1406 77.8105 28.7266 77.5664 29.1953 77.2539C29.6641 76.9414 30.084 76.5117 30.4551 75.9648C30.8457 75.3984 31.1289 74.7344 31.3047 73.9727C31.5 73.0938 31.6074 72.2148 31.627 71.3359C31.666 70.457 31.5293 69.5977 31.2168 68.7578C30.9238 67.918 30.5137 67.166 29.9863 66.502C29.4785 65.8379 28.7656 65.2812 27.8477 64.832C26.9492 64.3828 25.9238 64.1094 24.7715 64.0117H11.1484V78.2207Z" fill="black"/>
<g clip-path="url(#clip0_1_11)">
<path d="M37.95 32.375H8.05C7.4175 32.375 6.9 32.8953 6.9 33.5312V35.8438C6.9 36.4797 7.4175 37 8.05 37H37.95C38.5825 37 39.1 36.4797 39.1 35.8438V33.5312C39.1 32.8953 38.5825 32.375 37.95 32.375ZM42.55 9.25C40.6453 9.25 39.1 10.8037 39.1 12.7188C39.1 13.2318 39.215 13.7088 39.4163 14.1496L34.2125 17.2859C33.1056 17.9508 31.6753 17.575 31.0356 16.4477L25.1778 6.14258C25.9469 5.50664 26.45 4.55273 26.45 3.46875C26.45 1.55371 24.9047 0 23 0C21.0953 0 19.55 1.55371 19.55 3.46875C19.55 4.55273 20.0531 5.50664 20.8222 6.14258L14.9644 16.4477C14.3247 17.575 12.8872 17.9508 11.7875 17.2859L6.59094 14.1496C6.785 13.716 6.90719 13.2318 6.90719 12.7188C6.90719 10.8037 5.36187 9.25 3.45719 9.25C1.5525 9.25 0 10.8037 0 12.7188C0 14.6338 1.54531 16.1875 3.45 16.1875C3.63687 16.1875 3.82375 16.1586 4.00344 16.1297L9.2 30.0625H36.8L41.9966 16.1297C42.1762 16.1586 42.3631 16.1875 42.55 16.1875C44.4547 16.1875 46 14.6338 46 12.7188C46 10.8037 44.4547 9.25 42.55 9.25Z" fill="black"/>
</g>
<defs>
<clipPath id="clip0_1_11">
<rect width="46" height="37" fill="white"/>
</clipPath>
</defs>
</svg>
