<svg width="48" height="49" viewBox="0 0 48 49" fill="none" xmlns="http://www.w3.org/2000/svg">
<path d="M23.25 45.5H6.75C4.683 45.5 3 43.8185 3 41.75V12.5C3 12.086 3.336 11.75 3.75 11.75C4.164 11.75 4.5 12.086 4.5 12.5V41.75C4.5 42.9905 5.5095 44 6.75 44H23.25C23.664 44 24 44.336 24 44.75C24 45.164 23.664 45.5 23.25 45.5Z" fill="white"/>
<path d="M41.25 45.5H32.25C31.836 45.5 31.5 45.164 31.5 44.75V29.75C31.5 29.336 31.836 29 32.25 29H36.8385L37.401 24.5H32.25C31.836 24.5 31.5 24.164 31.5 23.75V17.75C31.5 16.5095 32.5095 15.5 33.75 15.5H37.5V11H32.25C29.355 11 27 13.355 27 16.25V23.75C27 24.164 26.664 24.5 26.25 24.5H21V29H26.25C26.664 29 27 29.336 27 29.75V44.75C27 45.164 26.664 45.5 26.25 45.5C25.836 45.5 25.5 45.164 25.5 44.75V30.5H20.25C19.836 30.5 19.5 30.164 19.5 29.75V23.75C19.5 23.336 19.836 23 20.25 23H25.5V16.25C25.5 12.5285 28.5285 9.5 32.25 9.5H38.25C38.664 9.5 39 9.836 39 10.25V16.25C39 16.664 38.664 17 38.25 17H33.75C33.336 17 33 17.3375 33 17.75V23H38.25C38.466 23 38.67 23.093 38.8125 23.2535C38.955 23.414 39.021 23.63 38.994 23.8445L38.244 29.8445C38.1975 30.2195 37.878 30.5 37.5 30.5H33V44H41.25C42.4905 44 43.5 42.9905 43.5 41.75V7.25C43.5 6.0095 42.4905 5 41.25 5H6.75C5.5095 5 4.5 6.0095 4.5 7.25V8.75C4.5 9.164 4.164 9.5 3.75 9.5C3.336 9.5 3 9.164 3 8.75V7.25C3 5.1815 4.683 3.5 6.75 3.5H41.25C43.317 3.5 45 5.1815 45 7.25V41.75C45 43.8185 43.317 45.5 41.25 45.5Z" fill="white"/>
</svg>
