<svg width="224" height="224" viewBox="0 0 224 224" fill="none" xmlns="http://www.w3.org/2000/svg">
<g clip-path="url(#clip0_1_116)">
<path d="M160.923 176.699C193.616 150.792 199.118 103.286 173.21 70.5926C147.303 37.899 99.7974 32.3978 67.1037 58.3052C34.4101 84.2126 28.9089 131.718 54.8163 164.412C80.7237 197.105 128.229 202.607 160.923 176.699Z" fill="#4384EC"/>
<path d="M173.211 70.5808C167.142 62.9232 159.888 56.7577 151.917 52.1385C152.756 53.0944 153.576 54.0758 154.375 55.0835C180.284 87.7761 174.785 135.282 142.093 161.192C117.058 181.033 83.3362 182.455 57.2775 167.353C83.6453 197.409 129.244 201.8 160.929 176.689C193.621 150.78 199.12 103.273 173.211 70.5808Z" fill="#2C6CD3"/>
<path d="M136.578 92.3858L134.768 93.0228C133.856 93.3441 132.841 93.0509 132.241 92.293L132.045 92.046C130.99 90.7153 131.721 88.7399 133.388 88.4153L135.393 88.0252C136.638 87.783 137.839 88.6099 138.057 89.8593C138.247 90.9501 137.622 92.0181 136.578 92.3858Z" fill="white"/>
<path d="M49.6268 77.0343L55.5726 76.4324L57.2373 77.4347C59.8308 78.996 63.0807 76.8701 62.689 73.8683L62.5476 72.7842L74.6517 64.2787C76.5739 62.928 79.2424 63.5292 80.3992 65.5742C81.6792 67.8372 80.4793 70.6996 77.968 71.373L76.8724 71.6669C74.8239 72.2162 73.8212 74.5309 74.822 76.4009L76.2235 79.0204C76.8036 80.1043 76.7312 81.4212 76.0365 82.4352L71.8598 88.531C71.3995 90.7797 68.9878 92.0363 66.8809 91.1251L63.9116 89.8411C58.1995 87.3711 52.0188 86.173 45.7976 86.3304L44.6799 86.3584C41.0164 94.6176 38.8791 103.441 38.3228 112.381L43.7616 119.244C44.912 120.695 47.2304 119.57 46.8018 117.768L46.0847 114.753C46.0064 114.425 46.0262 114.081 46.1411 113.764L49.6715 104.008C52.8505 101.079 57.7236 101.008 60.986 103.844L66.781 108.882C67.6018 109.176 68.4535 109.375 69.3197 109.476L73.2854 109.935C76.7167 110.332 80.0797 108.766 81.9844 105.885L86.7249 98.7128C87.5353 97.4867 87.7259 95.9528 87.2406 94.5657C86.7318 93.1118 86.9673 91.5006 87.8709 90.2532L92.592 83.7355C93.1094 83.0215 93.8167 82.4671 94.6339 82.136L97.8882 80.8164C101.125 79.5038 102.193 75.4503 100.024 72.7131L96.5535 68.334C94.787 66.105 95.123 62.8737 97.3101 61.0559L102.774 56.5148C104.761 54.8632 107.657 54.9128 109.586 56.6308C111.515 58.3483 114.409 58.3984 116.396 56.7488L124.011 50.4285C124.011 50.4285 126.238 45.988 127.746 42.8315C124.063 42.1364 120.332 41.718 116.586 41.5733L113.525 44.3384C109.726 47.7708 104.859 49.7873 99.7451 50.0475L99.5671 50.0566C96.2446 50.2255 93.6272 47.3466 94.1005 44.0922L94.1008 44.0903C84.4373 46.6821 75.1326 51.2427 66.7931 57.8522C59.8176 63.381 54.0854 69.8941 49.6268 77.0343Z" fill="white"/>
<path d="M75.968 128.088L74.5619 142.54L79.0658 151.78L78.9912 152.005C77.986 155.031 74.6658 156.615 71.6814 155.492L71.4717 155.413C69.3323 154.608 67.7147 157.361 69.4401 158.814C75.2849 163.738 82.4741 169.797 86.0636 172.822C87.4885 174.023 89.3976 174.473 91.2095 174.038L96.0012 172.889C98.1224 172.379 100.359 172.924 102.009 174.352L110.47 181.671L110.487 181.686C111.609 182.659 113.13 183.033 114.575 182.691L124.345 180.381C125.943 180.003 127.197 178.764 127.594 177.17L128.053 175.325C128.603 173.115 130.753 171.693 133.002 172.051L139.88 173.147C140.381 173.226 140.888 173.258 141.395 173.242L146.003 173.094C148.61 173.01 151.011 171.66 152.438 169.478L159.745 158.301C160.219 157.576 160.407 156.701 160.272 155.846L159.767 152.626C159.506 150.966 160.463 149.356 162.045 148.791C164.456 147.93 166.944 149.866 166.701 152.415L166.404 155.537C166.093 158.796 168.979 161.451 172.201 160.871L176.389 160.117C182.021 151.878 185.883 142.705 187.901 133.173L187.341 132.25C184.509 127.585 179.018 125.245 173.692 126.433L158.28 132.131C154.044 133.2 152.56 136.445 150.767 138.793C150.037 139.75 149.535 140.846 149.164 141.991C148.377 144.425 145.665 145.864 143.108 144.91L141.006 144.126C138.11 143.045 135.424 146.133 136.894 148.852L138.046 150.982C139.279 153.262 139.736 155.883 139.347 158.447L139.136 159.838C138.725 162.546 135.74 164.014 133.345 162.688C131.305 161.558 128.808 161.669 127.014 163.159L122.816 166.643C118.375 166.826 114.574 163.488 114.18 159.061L112.515 140.3C112.411 134.448 108.32 129.425 102.609 128.139L101.538 127.904C99.2208 127.394 97.4061 125.592 96.8804 123.278L96.8464 123.13C95.9205 119.051 91.4296 116.938 87.7159 118.82C84.8449 120.274 81.7028 121.862 79.4444 123.003C77.4907 123.992 76.1799 125.909 75.968 128.088Z" fill="white"/>
<path d="M138.803 103.21C141.094 104.41 142.079 107.172 141.057 109.548C139.793 112.486 138.114 115.867 137.075 115.895C136.227 115.918 133.463 115.663 130.729 115.381C127.505 115.05 125.461 111.764 126.592 108.727C127.002 107.628 127.788 106.71 128.811 106.137L133.993 103.23C135.454 102.411 137.229 102.386 138.712 103.163L138.803 103.21Z" fill="white"/>
<path d="M188.817 106.974C175.935 122.182 157.429 137.27 135.93 149.996C112.318 163.974 87.9432 173.42 67.0902 176.698C69.3586 178.499 71.7135 180.152 74.1399 181.66C94.3056 177.525 117.045 168.316 139.06 155.284C159.014 143.471 176.5 129.627 189.522 115.455C189.447 112.623 189.211 109.791 188.817 106.974Z" fill="#2A63D8"/>
<path d="M187.341 132.251C184.509 127.586 179.019 125.246 173.692 126.434L165.403 128.283C160.758 140.78 152.745 152.206 141.534 161.091C130.502 169.834 117.784 174.995 104.778 176.747L110.47 181.672C110.476 181.677 110.482 181.682 110.488 181.687C111.583 182.639 113.045 183.054 114.458 182.719L124.345 180.382C125.943 180.004 127.197 178.765 127.594 177.171L128.053 175.325C128.603 173.116 130.752 171.694 133.001 172.052L139.881 173.147C140.381 173.227 140.889 173.259 141.395 173.243L146.003 173.095C148.61 173.011 151.012 171.661 152.438 169.479L159.745 158.302C160.219 157.577 160.407 156.702 160.272 155.846L159.767 152.626C159.507 150.967 160.463 149.357 162.045 148.792C164.456 147.931 166.944 149.867 166.701 152.416L166.404 155.538C166.093 158.797 168.98 161.452 172.201 160.872L176.389 160.117C182.021 151.879 185.884 142.705 187.901 133.174L187.341 132.251Z" fill="#F2F2F2"/>
<path d="M173.692 126.434L167.562 127.802C161.897 132.525 155.774 137.127 149.278 141.533C148.753 143.992 146.328 145.6 143.852 145.114C141.647 146.528 139.403 147.917 137.126 149.282L138.046 150.983C138.742 152.27 139.181 153.666 139.37 155.098C154.061 146.374 167.405 136.552 178.603 126.311C177.006 126.038 175.341 126.066 173.692 126.434Z" fill="#CAD8EF"/>
<path d="M114.687 161.259C104.804 165.901 95.0108 169.672 85.6188 172.447C85.7721 172.576 85.9221 172.703 86.0643 172.822C87.4892 174.024 89.3983 174.474 91.2102 174.039L96.0018 172.889C97.755 172.469 99.5859 172.769 101.1 173.691C107.047 171.44 113.081 168.85 119.135 165.946C117.102 165.054 115.482 163.372 114.687 161.259Z" fill="#CAD8EF"/>
<path d="M37.8999 179.726C28.2143 177.971 21.1594 173.765 17.311 167.264C10.7429 156.168 14.547 140.046 28.0227 121.867C29.0331 120.504 30.9566 120.218 32.3201 121.228C33.6827 122.239 33.9689 124.163 32.9585 125.526C21.2222 141.358 17.4458 155.431 22.5981 164.134C27.8295 172.972 42.276 176.389 62.2328 173.509C83.4068 170.453 108.38 160.89 132.552 146.581C156.724 132.272 177.12 114.977 189.984 97.8833C202.108 81.7721 206.061 67.4634 200.829 58.6255C195.334 49.3422 179.915 46.0773 158.526 49.6675C156.852 49.9481 155.268 48.8195 154.987 47.1467C154.707 45.4735 155.835 43.8896 157.508 43.6086C181.892 39.5153 199.155 43.7365 206.116 55.496C212.776 66.7453 208.79 83.111 194.893 101.578C181.558 119.299 160.529 137.159 135.682 151.868C110.834 166.577 85.0609 176.423 63.1102 179.59C53.4544 180.984 44.975 181.009 37.8999 179.726Z" fill="#F2F2F2"/>
</g>
<defs>
<clipPath id="clip0_1_116">
<rect width="192" height="192" fill="white" transform="translate(34.2465) rotate(10.2747)"/>
</clipPath>
</defs>
</svg>
