<svg width="60" height="60" viewBox="0 0 60 60" fill="none" xmlns="http://www.w3.org/2000/svg">
<path fill-rule="evenodd" clip-rule="evenodd" d="M58.0537 8.39871C50.6325 19.4325 28.2787 41.75 28.2787 41.75L28.27 41.7412C28.2175 41.7987 28.17 41.8587 28.1137 41.915C26.7087 43.3175 24.8025 43.885 22.9712 43.6687C23.56 46.1337 22.9387 48.84 21.06 50.7662C21.06 50.7662 11.66 62.39 1.24249 55.0662C1.24249 55.0662 6.85999 53.4925 7.34874 48.96C7.34874 48.96 6.59874 44.3925 10.7225 40.16C12.5712 38.2625 15.1575 37.6112 17.5287 38.165C17.3387 36.36 17.9075 34.49 19.2925 33.1062C19.3475 33.05 19.4087 33.0025 19.4662 32.9487L19.4575 32.94C19.4575 32.94 41.7975 10.61 52.8475 3.19871C54.31 2.15246 56.3525 2.27496 57.665 3.58621C58.9812 4.89996 59.1025 6.93871 58.0537 8.39871ZM19.32 41.8575C18.3925 40.93 17.19 40.4012 15.9037 40.4012C14.6125 40.4012 13.3925 40.9212 12.4737 41.865C9.30499 45.1175 9.77999 48.845 9.79249 48.9612C9.51999 51.4862 8.08874 53.6375 6.59624 54.9312C7.12374 55.0275 7.65749 55.0762 8.20249 55.0762C14.14 55.0762 19.1425 49.2512 19.1887 49.1962C19.1887 49.1962 22.6125 45.1512 19.32 41.8575ZM19.9925 37.51C19.9925 38.505 20.3537 39.4425 21.06 40.1462C21.7662 40.8512 22.745 41.26 23.7425 41.26C24.74 41.26 25.6412 40.8525 26.325 40.1675L28.2675 38.205C28.3662 38.1037 28.5012 37.9662 28.61 37.855L23.3637 32.6087C23.2487 32.72 23.1075 32.8562 23.005 32.9575L21.0587 34.8787C20.3537 35.5812 19.9925 36.515 19.9925 37.51ZM55.9 5.35746C55.5887 5.04621 55.225 4.99996 55.0337 4.99996C54.7687 4.99996 54.5162 5.07996 54.24 5.27746C46.4675 10.49 31.7412 24.4862 25.1137 30.9062L30.3125 36.105C36.7375 29.485 50.7675 14.7512 56.0225 6.93996C56.3775 6.44746 56.3262 5.78121 55.9 5.35746Z" fill="black"/>
</svg>
