<svg width="43" height="43" viewBox="0 0 43 43" fill="none" xmlns="http://www.w3.org/2000/svg">
<path d="M39.6005 3.14844C39.7582 3.14844 39.9095 3.21111 40.0211 3.32267C40.1326 3.43422 40.1953 3.58552 40.1953 3.74328V39.2609C40.1953 39.4187 40.1326 39.57 40.0211 39.6816C39.9095 39.7931 39.7582 39.8558 39.6005 39.8558H4.08703C3.92927 39.8558 3.77797 39.7931 3.66641 39.6816C3.55486 39.57 3.49219 39.4187 3.49219 39.2609V3.74328C3.49219 3.58552 3.55486 3.43422 3.66641 3.32267C3.77797 3.21111 3.92927 3.14844 4.08703 3.14844H39.6047M39.6047 0.406253H4.08703C3.202 0.406253 2.35321 0.757832 1.72739 1.38365C1.10158 2.00946 0.75 2.85825 0.75 3.74328V39.2609C0.751118 40.1452 1.10319 40.993 1.72888 41.6179C2.35458 42.2428 3.20273 42.5938 4.08703 42.5938H39.6047C40.4897 42.5938 41.3385 42.2422 41.9643 41.6164C42.5901 40.9905 42.9417 40.1418 42.9417 39.2567V3.74328C42.9417 3.3047 42.8553 2.87042 42.6873 2.46528C42.5193 2.06014 42.2732 1.69208 41.9628 1.38215C41.6525 1.07223 41.2841 0.82651 40.8788 0.659057C40.4734 0.491604 40.039 0.405698 39.6005 0.406253H39.6047Z" fill="white"/>
</svg>
