<svg width="68" height="68" viewBox="0 0 68 68" fill="none" xmlns="http://www.w3.org/2000/svg">
<path d="M14.025 21.7014C18.0094 21.7014 21.2766 18.4607 21.2766 14.4498C21.2766 10.4389 18.0359 7.19824 14.025 7.19824C10.0141 7.19824 6.79999 10.4654 6.79999 14.4498C6.79999 18.4342 10.0406 21.7014 14.025 21.7014ZM14.025 9.96074C16.4953 9.96074 18.5406 11.9795 18.5406 14.4764C18.5406 16.9732 16.5219 18.992 14.025 18.992C11.5281 18.992 9.50936 16.9732 9.50936 14.4764C9.50936 11.9795 11.5547 9.96074 14.025 9.96074Z" fill="black"/>
<path d="M22.6047 30.0952C21.8609 30.0421 21.1969 30.6265 21.1438 31.3702L20.0281 47.2812C20.0281 47.3343 20.0016 47.3608 20.0016 47.414L18.9922 62.8999C18.9656 63.4843 18.461 63.9624 17.8766 63.9624H10.1734C9.58907 63.9624 9.08439 63.5108 9.05782 62.8999L8.04845 47.414C8.02189 46.8562 7.62345 46.3515 7.0922 46.1921C6.80001 46.1124 5.95001 45.8468 5.8172 45.714C5.71095 45.5546 5.65782 44.7046 5.63126 44.2796L4.70158 27.864V27.8374C6.42814 27.3327 8.12814 26.7749 9.8547 26.2171C10.625 27.1202 11.3953 27.9968 12.1922 28.8999L13.0156 29.8296C13.2813 30.1218 13.6531 30.3077 14.0516 30.3077C14.45 30.3077 14.8219 30.1483 15.0875 29.8296L16.0438 28.7405C16.8141 27.864 17.5313 27.0405 18.2484 26.1905L30.1484 28.8733C30.3344 28.9265 30.5469 28.9265 30.7328 28.8733L41.4641 26.6687C42.2078 26.5093 42.686 25.7921 42.5266 25.0483C42.3672 24.3046 41.65 23.8265 40.9063 23.9858L30.4672 26.1374L18.7266 23.4812C18.6734 23.4546 18.5938 23.4546 18.5406 23.4546C18.1953 23.428 17.0266 23.4015 16.3094 24.2515C15.5656 25.128 14.8219 25.978 14.0516 26.8546C13.2813 25.978 12.5375 25.128 11.7938 24.2515C11.1031 23.4546 10.2266 23.189 9.27033 23.5077C7.43751 24.1187 5.6047 24.703 3.77189 25.2608C2.60314 25.6327 1.96564 26.5093 1.96564 27.7046C1.96564 27.7843 1.96564 27.9968 1.96564 28.0233L2.86876 44.2265L2.89532 44.4921C3.0547 46.8562 3.40001 47.7593 5.3922 48.5296L6.34845 63.1124C6.48126 65.1312 8.18126 66.7249 10.2 66.7249H17.9031C19.9219 66.7249 21.6219 65.1312 21.7547 63.1124L22.7641 47.7593C22.7641 47.7062 22.7641 47.6796 22.7906 47.6265L23.9063 31.5827C23.9063 30.8124 23.3484 30.1483 22.6047 30.0952Z" fill="black"/>
<path d="M64.6797 1.2749H14.025C13.2813 1.2749 12.6438 1.88584 12.6438 2.65615C12.6438 3.42646 13.2547 4.0374 14.025 4.0374H63.2985V39.6311H26.961C26.2172 39.6311 25.5797 40.2421 25.5797 41.0124C25.5797 41.7561 26.1906 42.3937 26.961 42.3937H64.6797C65.4235 42.3937 66.061 41.7827 66.061 41.0124V2.65615C66.061 1.9124 65.45 1.2749 64.6797 1.2749Z" fill="black"/>
</svg>
