<svg width="68" height="68" viewBox="0 0 68 68" fill="none" xmlns="http://www.w3.org/2000/svg">
<g clip-path="url(#clip0_4_197)">
<path d="M10.574 18.972C11.1999 18.972 11.7073 18.4646 11.7073 17.8387C11.7073 17.2127 11.1999 16.7053 10.574 16.7053C9.94808 16.7053 9.44067 17.2127 9.44067 17.8387C9.44067 18.4646 9.94808 18.972 10.574 18.972Z" fill="#3D3D63"/>
<path d="M18.1333 18.972C18.7593 18.972 19.2667 18.4646 19.2667 17.8387C19.2667 17.2127 18.7593 16.7053 18.1333 16.7053C17.5074 16.7053 17 17.2127 17 17.8387C17 18.4646 17.5074 18.972 18.1333 18.972Z" fill="#3D3D63"/>
<path d="M14.3593 18.972C14.9853 18.972 15.4927 18.4646 15.4927 17.8387C15.4927 17.2127 14.9853 16.7053 14.3593 16.7053C13.7334 16.7053 13.226 17.2127 13.226 17.8387C13.226 18.4646 13.7334 18.972 14.3593 18.972Z" fill="#3D3D63"/>
<path d="M22.6667 34.2833L26.0667 30.8833C26.2801 30.6699 26.4 30.3805 26.4 30.0786C26.4 29.7768 26.2801 29.4874 26.0667 29.274C25.8533 29.0606 25.5638 28.9407 25.262 28.9407C24.9602 28.9407 24.6707 29.0606 24.4573 29.274L20.2413 33.5013C20.0303 33.7137 19.9118 34.0009 19.9118 34.3003C19.9118 34.5997 20.0303 34.887 20.2413 35.0993L24.4573 39.3266C24.5627 39.4329 24.688 39.5172 24.8262 39.5747C24.9643 39.6323 25.1124 39.6619 25.262 39.6619C25.4116 39.6619 25.5597 39.6323 25.6979 39.5747C25.836 39.5172 25.9613 39.4329 26.0667 39.3266C26.2778 39.1143 26.3962 38.8271 26.3962 38.5276C26.3962 38.2282 26.2778 37.941 26.0667 37.7286L22.6667 34.2833Z" fill="#3D3D63"/>
<path d="M38.896 39.3041C39.1083 39.5151 39.3956 39.6336 39.695 39.6336C39.9944 39.6336 40.2817 39.5151 40.494 39.3041L44.7213 35.1334C44.9324 34.9211 45.0509 34.6338 45.0509 34.3344C45.0509 34.035 44.9324 33.7477 44.7213 33.5354L40.494 29.3081C40.2806 29.0962 39.9917 28.9777 39.691 28.9788C39.3903 28.9798 39.1022 29.1003 38.8903 29.3137C38.6784 29.5271 38.56 29.816 38.561 30.1167C38.5621 30.4175 38.6826 30.7055 38.896 30.9174L42.296 34.3174L38.896 37.7174C38.6883 37.9292 38.572 38.2141 38.572 38.5107C38.572 38.8074 38.6883 39.0922 38.896 39.3041Z" fill="#3D3D63"/>
<path d="M35.1333 29.6367C35.004 29.5617 34.8611 29.5131 34.7129 29.4937C34.5647 29.4742 34.414 29.4842 34.2697 29.5232C34.1254 29.5622 33.9902 29.6293 33.872 29.7208C33.7537 29.8122 33.6547 29.9261 33.5807 30.056L29.3987 37.4C29.3167 37.529 29.2616 37.6733 29.2368 37.8241C29.212 37.9749 29.2179 38.1292 29.2543 38.2777C29.2907 38.4261 29.3567 38.5657 29.4484 38.688C29.5401 38.8103 29.6556 38.9127 29.7879 38.9892C29.9203 39.0657 30.0667 39.1147 30.2184 39.1331C30.3702 39.1515 30.5241 39.1391 30.6709 39.0965C30.8177 39.0539 30.9543 38.982 31.0727 38.8853C31.191 38.7885 31.2885 38.6688 31.3593 38.5333L35.5867 31.2233C35.6657 31.0906 35.7168 30.943 35.7368 30.7897C35.7567 30.6365 35.7451 30.4807 35.7026 30.3321C35.6602 30.1835 35.5878 30.0451 35.4899 29.9256C35.392 29.806 35.2706 29.7077 35.1333 29.6367Z" fill="#3D3D63"/>
<path d="M63.308 45.3333C63.2412 45.3328 63.1761 45.3119 63.1214 45.2734C63.0667 45.235 63.0251 45.1807 63.002 45.118C62.5511 43.9317 61.912 42.8257 61.1094 41.8426C61.0713 41.7877 61.051 41.7225 61.051 41.6556C61.051 41.5888 61.0713 41.5236 61.1094 41.4686C61.4545 40.8704 61.5481 40.1596 61.3696 39.4923C61.1912 38.8251 60.7551 38.256 60.1574 37.91L59.3074 37.4V16.7053C59.3074 15.8036 58.9491 14.9388 58.3115 14.3011C57.6739 13.6635 56.8091 13.3053 55.9074 13.3053H9.06669C8.16495 13.3053 7.30015 13.6635 6.66252 14.3011C6.0249 14.9388 5.66669 15.8036 5.66669 16.7053V45.424C5.66967 46.1234 5.94884 46.7933 6.44342 47.2879C6.93799 47.7825 7.60792 48.0616 8.30735 48.0646H23.8L22.6667 52.258H21.1594C20.0555 52.2587 18.9841 52.6316 18.1183 53.3164C17.2526 54.0012 16.643 54.9579 16.388 56.032H13.6C13.2994 56.032 13.0112 56.1514 12.7986 56.3639C12.5861 56.5765 12.4667 56.8647 12.4667 57.1653C12.4667 57.4659 12.5861 57.7541 12.7986 57.9667C13.0112 58.1792 13.2994 58.2986 13.6 58.2986H42.466C42.4468 58.5694 42.4736 58.8415 42.5454 59.1033C42.6303 59.4358 42.7815 59.7476 42.9899 60.0203C43.1983 60.2929 43.4595 60.5207 43.758 60.69L46.1494 62.0726C46.4463 62.2431 46.7738 62.3534 47.1134 62.3972C47.4529 62.441 47.7978 62.4175 48.1282 62.3281C48.4587 62.2386 48.7683 62.085 49.0394 61.8758C49.3104 61.6667 49.5376 61.4062 49.708 61.1093C49.7447 61.0515 49.7976 61.0057 49.86 60.9775C49.9224 60.9493 49.9917 60.94 50.0594 60.9506C51.3043 61.166 52.577 61.166 53.822 60.9506C53.891 60.9395 53.9617 60.9498 54.0245 60.9802C54.0874 61.0106 54.1393 61.0596 54.1734 61.1206C54.4044 61.5161 54.7355 61.8438 55.1334 62.0706C55.5313 62.2974 55.982 62.4154 56.44 62.4126C56.8969 62.4171 57.3468 62.2997 57.7434 62.0726L60.1347 60.69C60.4316 60.5187 60.6916 60.2903 60.8997 60.0179C61.1079 59.7456 61.26 59.4347 61.3474 59.1033C61.4376 58.7738 61.461 58.4296 61.4163 58.091C61.3715 57.7523 61.2594 57.426 61.0867 57.1313C61.0477 57.0746 61.0268 57.0074 61.0268 56.9386C61.0268 56.8698 61.0477 56.8027 61.0867 56.746C61.8868 55.7653 62.5257 54.6635 62.9794 53.482C63.001 53.4183 63.0422 53.3631 63.0972 53.3244C63.1522 53.2857 63.2181 53.2655 63.2854 53.2666C63.9758 53.2637 64.6371 52.9881 65.1253 52.4999C65.6135 52.0117 65.889 51.3504 65.892 50.66V47.8946C65.8802 47.2151 65.6035 46.567 65.1208 46.0886C64.6381 45.6101 63.9876 45.3391 63.308 45.3333ZM7.93335 16.7053C7.93335 16.4047 8.05276 16.1165 8.2653 15.9039C8.47784 15.6914 8.76611 15.572 9.06669 15.572H55.9074C56.2079 15.572 56.4962 15.6914 56.7087 15.9039C56.9213 16.1165 57.0407 16.4047 57.0407 16.7053V20.1053H7.93335V16.7053ZM8.30735 45.798C8.25824 45.798 8.20961 45.7883 8.16423 45.7695C8.11885 45.7507 8.07763 45.7232 8.0429 45.6884C8.00817 45.6537 7.98062 45.6125 7.96182 45.5671C7.94303 45.5217 7.93335 45.4731 7.93335 45.424V22.372H57.0407V36.2666C56.5044 36.1242 55.9365 36.1574 55.4205 36.3614C54.9044 36.5653 54.4673 36.9293 54.1734 37.4C54.1381 37.4559 54.0868 37.4998 54.0261 37.5261C53.9654 37.5524 53.8983 37.5598 53.8334 37.5473C52.5874 37.3432 51.3166 37.3432 50.0707 37.5473C50.0057 37.5615 49.938 37.5548 49.8769 37.5284C49.8159 37.502 49.7648 37.457 49.7307 37.4C49.5604 37.1029 49.3331 36.8424 49.0617 36.6335C48.7904 36.4247 48.4803 36.2716 48.1495 36.1831C47.8187 36.0946 47.4737 36.0725 47.1343 36.1179C46.7949 36.1634 46.4679 36.2755 46.172 36.448L43.7807 37.8306C43.483 37.9981 43.2221 38.224 43.0137 38.4947C42.8054 38.7653 42.6538 39.0753 42.568 39.406C42.3868 40.0741 42.4764 40.7868 42.8174 41.3893C42.8587 41.4429 42.8811 41.5086 42.8811 41.5763C42.8811 41.644 42.8587 41.7097 42.8174 41.7633C42.0147 42.7464 41.3757 43.8523 40.9247 45.0386C40.9016 45.1014 40.86 45.1556 40.8053 45.1941C40.7506 45.2326 40.6855 45.2535 40.6187 45.254C40.0636 45.2548 39.5234 45.4335 39.0774 45.764L8.30735 45.798ZM38.5334 52.258H24.9334L26.0667 48.0646H37.9667V50.66C37.9739 51.2406 38.1732 51.8025 38.5334 52.258ZM21.1707 54.5246H41.344C41.6031 55.0471 41.8985 55.5508 42.228 56.032H18.7794C18.9933 55.5817 19.3304 55.2012 19.7516 54.9344C20.1727 54.6677 20.6608 54.5256 21.1594 54.5246H21.1707ZM63.648 50.66C63.648 50.7501 63.6122 50.8366 63.5484 50.9004C63.4847 50.9641 63.3982 51 63.308 51C62.7801 51.0013 62.2649 51.1622 61.8301 51.4615C61.3952 51.7608 61.061 52.1846 60.8714 52.6773C60.5091 53.6328 59.9964 54.5243 59.3527 55.318C59.0208 55.728 58.8204 56.2287 58.778 56.7545C58.7355 57.2803 58.8529 57.8067 59.1147 58.2646C59.1329 58.3037 59.1424 58.3462 59.1424 58.3893C59.1424 58.4324 59.1329 58.4749 59.1147 58.514C59.1048 58.559 59.0856 58.6014 59.0583 58.6385C59.0309 58.6756 58.9961 58.7065 58.956 58.7293L56.5987 60.0666C56.5593 60.0885 56.516 60.1024 56.4712 60.1074C56.4265 60.1124 56.3811 60.1085 56.3379 60.0958C56.2947 60.0832 56.2544 60.062 56.2194 60.0337C56.1844 60.0053 56.1554 59.9703 56.134 59.9306C55.8661 59.4739 55.4659 59.1092 54.9864 58.8846C54.5068 58.66 53.9704 58.5861 53.448 58.6726C52.4503 58.8426 51.4311 58.8426 50.4334 58.6726C49.9098 58.5871 49.3725 58.6627 48.8929 58.8894C48.4132 59.1161 48.0137 59.4832 47.7474 59.942C47.7003 60.018 47.626 60.0731 47.5397 60.0963C47.4534 60.1195 47.3615 60.1089 47.2827 60.0666L44.8914 58.684C44.8513 58.6612 44.8165 58.6303 44.7891 58.5932C44.7618 58.5561 44.7426 58.5136 44.7327 58.4686C44.7145 58.4296 44.705 58.387 44.705 58.344C44.705 58.3009 44.7145 58.2583 44.7327 58.2193C44.9915 57.7604 45.1071 57.2346 45.0647 56.7095C45.0223 56.1844 44.8238 55.684 44.4947 55.2726C43.8452 54.481 43.3285 53.5892 42.9647 52.632C42.7746 52.1523 42.4452 51.7405 42.019 51.4496C41.5928 51.1587 41.0893 51.0021 40.5734 51C40.4832 51 40.3967 50.9641 40.3329 50.9004C40.2692 50.8366 40.2334 50.7501 40.2334 50.66V47.8946C40.2318 47.8496 40.2395 47.8046 40.256 47.7627C40.2725 47.7207 40.2975 47.6826 40.3294 47.6507C40.3613 47.6188 40.3994 47.5938 40.4414 47.5773C40.4834 47.5608 40.5283 47.553 40.5734 47.5546C41.0997 47.5526 41.6131 47.3913 42.046 47.0919C42.4789 46.7925 42.811 46.3691 42.9987 45.8773C43.3599 44.9189 43.8768 44.0266 44.5287 43.2366C44.8578 42.8252 45.0563 42.3248 45.0987 41.7997C45.1411 41.2746 45.0255 40.7488 44.7667 40.29C44.7482 40.249 44.7387 40.2046 44.7387 40.1596C44.7387 40.1147 44.7482 40.0703 44.7667 40.0293C44.7759 39.9855 44.795 39.9443 44.8225 39.909C44.85 39.8736 44.8851 39.845 44.9254 39.8253L47.3167 38.4426C47.3723 38.4272 47.4311 38.4272 47.4867 38.4426C47.5434 38.4433 47.599 38.4582 47.6485 38.486C47.698 38.5137 47.7398 38.5533 47.77 38.6013C48.0376 39.059 48.4372 39.4251 48.9166 39.6517C49.3959 39.8782 49.9325 39.9545 50.456 39.8706C51.4537 39.7007 52.473 39.7007 53.4707 39.8706C53.9977 39.9418 54.5338 39.8522 55.009 39.6136C55.4843 39.375 55.8764 38.9985 56.134 38.5333C56.1562 38.4959 56.1855 38.4633 56.2204 38.4373C56.2552 38.4114 56.2949 38.3926 56.337 38.382C56.3792 38.3715 56.423 38.3694 56.466 38.3759C56.509 38.3824 56.5502 38.3974 56.5874 38.42L58.9787 39.8026C59.0189 39.8223 59.0541 39.851 59.0816 39.8863C59.1091 39.9217 59.1281 39.9628 59.1374 40.0066C59.1558 40.0476 59.1654 40.092 59.1654 40.137C59.1654 40.1819 59.1558 40.2263 59.1374 40.2673C58.8765 40.7235 58.7596 41.248 58.8021 41.7718C58.8446 42.2956 59.0444 42.7944 59.3754 43.2026C60.0193 44.0003 60.532 44.8955 60.894 45.8546C61.0727 46.3556 61.399 46.7905 61.83 47.1021C62.261 47.4137 62.7763 47.5873 63.308 47.6C63.3531 47.5984 63.398 47.6061 63.44 47.6226C63.4819 47.6391 63.5201 47.6641 63.552 47.696C63.5839 47.7279 63.6088 47.766 63.6254 47.808C63.6419 47.85 63.6496 47.8949 63.648 47.94V50.66Z" fill="#3D3D63"/>
<path d="M51.9407 44.132C50.923 44.132 49.9282 44.4337 49.0821 44.9991C48.2359 45.5645 47.5764 46.3681 47.187 47.3083C46.7975 48.2484 46.6957 49.283 46.8942 50.2811C47.0927 51.2792 47.5828 52.196 48.3024 52.9156C49.0219 53.6352 49.9388 54.1252 50.9368 54.3238C51.9349 54.5223 52.9695 54.4204 53.9097 54.031C54.8499 53.6415 55.6535 52.982 56.2188 52.1359C56.7842 51.2897 57.086 50.2949 57.086 49.2773C57.086 47.9127 56.5439 46.6039 55.579 45.639C54.614 44.6741 53.3053 44.132 51.9407 44.132ZM51.9407 52.156C51.3713 52.156 50.8147 51.9871 50.3414 51.6708C49.868 51.3545 49.499 50.9049 49.2811 50.3789C49.0632 49.8529 49.0062 49.2741 49.1173 48.7157C49.2284 48.1573 49.5025 47.6444 49.9051 47.2418C50.3077 46.8392 50.8206 46.565 51.3791 46.4539C51.9375 46.3429 52.5163 46.3999 53.0423 46.6178C53.5683 46.8356 54.0179 47.2046 54.3342 47.678C54.6505 48.1514 54.8193 48.7079 54.8193 49.2773C54.8133 50.0368 54.5074 50.7632 53.9682 51.2982C53.429 51.8331 52.7002 52.1333 51.9407 52.1333V52.156Z" fill="#3D3D63"/>
</g>
<defs>
<clipPath id="clip0_4_197">
<rect width="68" height="68" fill="white"/>
</clipPath>
</defs>
</svg>
