<svg width="68" height="68" viewBox="0 0 68 68" fill="none" xmlns="http://www.w3.org/2000/svg">
<g clip-path="url(#clip0_4_242)">
<path d="M6.89594 3.60092C16.4121 3.59655 25.9282 3.59219 35.4444 3.58782C40.2024 3.58564 44.9605 3.58346 49.7186 3.58128C52.8143 3.57986 61.0582 2.04398 62.9708 4.93923C63.5831 5.86623 63.0788 11.3873 63.0978 12.5272C63.1331 14.635 63.1684 16.7428 63.2037 18.8506C63.2814 23.4877 63.3591 28.1248 63.4367 32.7619C63.5144 37.399 63.592 42.0361 63.6697 46.6733C63.7342 50.5249 65.0972 56.9454 63.9027 60.5846C62.1113 66.0421 54.6144 64.4592 50.2135 64.4665C45.082 64.475 39.9505 64.4835 34.8191 64.492C30.5428 64.4991 26.2666 64.5062 21.9904 64.5132C16.4498 64.5224 6.68734 66.5483 4.1712 59.8106C2.97817 56.6159 4.17479 50.5397 4.20754 47.1039C4.25196 42.4445 4.32212 37.7853 4.37041 33.126C4.41869 28.4678 4.45286 23.809 4.41968 19.1506C4.40158 16.6102 4.36813 14.0697 4.3081 11.5299C4.28816 10.6858 4.37852 2.17716 5.87379 3.371C7.33917 4.54098 9.43438 2.47217 7.95431 1.29047C4.92711 -1.12648 1.91902 0.67135 1.25572 4.33318C0.423135 8.9296 1.44507 14.4712 1.47737 19.1506C1.51537 24.6562 1.46337 30.1621 1.39975 35.6673C1.34101 40.7502 1.26636 45.8329 1.23471 50.916C1.21093 54.7352 0.271565 59.8737 1.69195 63.5438C4.08918 69.7381 14.4707 67.468 19.4247 67.4598C30.1152 67.4421 40.8058 67.4244 51.4963 67.4067C56.8471 67.3978 65.4963 69.4849 66.7742 62.4203C67.5217 58.2881 66.7246 53.3965 66.6544 49.2026C66.5626 43.7224 66.4708 38.2421 66.379 32.7619C66.2872 27.2817 66.1955 21.8015 66.1037 16.3212C66.0413 12.596 67.0525 6.93304 65.7697 3.42389C65.1926 1.845 64.3925 1.17569 62.7646 0.742515C57.8019 -0.578037 50.9634 0.638401 45.8256 0.640757C32.8491 0.646708 19.8725 0.652658 6.89594 0.658609C5.00275 0.659478 4.99953 3.60179 6.89594 3.60092Z" fill="#231F20"/>
<path d="M2.86274 17.7593C23.6405 17.7593 44.4183 17.7593 65.1961 17.7593C67.0893 17.7593 67.0924 14.817 65.1961 14.817C44.4183 14.817 23.6405 14.817 2.86274 14.817C0.969503 14.817 0.966367 17.7593 2.86274 17.7593Z" fill="#231F20"/>
<path d="M3.08079 52.3299C23.4956 52.2529 43.9104 52.2725 64.3251 52.3886C66.2187 52.3993 66.2209 49.457 64.3251 49.4462C43.9104 49.3302 23.4956 49.3106 3.08079 49.3876C1.18789 49.3947 1.18414 52.3371 3.08079 52.3299Z" fill="#231F20"/>
<path d="M16.1588 3.42695C16.3039 7.2046 16.3565 10.9823 16.3168 14.7625C16.2969 16.6564 19.2392 16.6578 19.2591 14.7625C19.2988 10.9823 19.2462 7.20458 19.1011 3.42695C19.0287 1.53963 16.086 1.53023 16.1588 3.42695Z" fill="#231F20"/>
<path d="M32.7762 2.77535C32.7762 7.02535 32.7762 11.2754 32.7762 15.5253C32.7762 17.4186 35.7185 17.4217 35.7185 15.5253C35.7185 11.2754 35.7185 7.02535 35.7185 2.77535C35.7185 0.882116 32.7762 0.87898 32.7762 2.77535Z" fill="#231F20"/>
<path d="M48.1416 2.66634C48.1416 7.13429 48.1416 11.6022 48.1416 16.0702C48.1416 17.9634 51.0839 17.9666 51.0839 16.0702C51.0839 11.6022 51.0839 7.13429 51.0839 2.66634C51.0839 0.773107 48.1416 0.769971 48.1416 2.66634Z" fill="#231F20"/>
<path d="M48.1335 51.8237C47.6889 56.5352 47.5106 61.2488 47.5979 65.9804C47.6327 67.8714 50.5752 67.8776 50.5402 65.9804C50.4529 61.2487 50.6313 56.5351 51.0758 51.8237C51.2536 49.9396 48.3102 49.9517 48.1335 51.8237Z" fill="#231F20"/>
<path d="M32.3789 51.5962C32.3313 56.1367 32.2837 60.6772 32.2361 65.2177C32.2163 67.1116 35.1586 67.113 35.1784 65.2177C35.226 60.6772 35.2736 56.1367 35.3212 51.5962C35.341 49.7024 32.3988 49.7009 32.3789 51.5962Z" fill="#231F20"/>
<path d="M16.757 51.8138C16.757 56.3907 16.757 60.9677 16.757 65.5446C16.757 67.4378 19.6993 67.4409 19.6993 65.5446C19.6993 60.9677 19.6993 56.3907 19.6993 51.8138C19.6993 49.9206 16.757 49.9174 16.757 51.8138Z" fill="#231F20"/>
<path d="M28.6766 27.504C31.8307 28.8261 35.274 29.9147 38.2694 31.5562C42.3782 33.8077 35.515 36.7189 33.6012 37.6153C32.2699 38.2389 30.9286 38.9878 29.5078 39.3814C27.3611 39.9762 27.8797 38.6946 27.8729 36.9567C27.8702 36.2663 27.9518 28.0483 28.0989 28.0882C29.9285 28.5851 30.7092 25.7475 28.881 25.251C23.5505 23.8033 24.9133 32.5509 24.9241 35.2971C24.9311 37.0899 24.127 40.7814 25.7825 42.0698C27.5193 43.4214 30.5694 42.1822 32.2681 41.4581C35.5184 40.0726 43.3685 37.6648 42.9774 33.078C42.7998 30.9953 41.1492 29.6972 39.4008 28.8428C36.1873 27.2724 32.7569 26.0492 29.4587 24.6667C27.7148 23.9358 26.9534 26.7817 28.6766 27.504Z" fill="#231F20"/>
</g>
<defs>
<clipPath id="clip0_4_242">
<rect width="68" height="68" fill="white"/>
</clipPath>
</defs>
</svg>
