<svg width="122" height="189" viewBox="0 0 122 189" fill="none" xmlns="http://www.w3.org/2000/svg">
<g clip-path="url(#clip0_4_331)">
<path d="M72.6 62.125H15.4C14.19 62.125 13.2 63.1234 13.2 64.3438V68.7812C13.2 70.0016 14.19 71 15.4 71H72.6C73.81 71 74.8 70.0016 74.8 68.7812V64.3438C74.8 63.1234 73.81 62.125 72.6 62.125ZM81.4 17.75C77.7562 17.75 74.8 20.7314 74.8 24.4062C74.8 25.3908 75.02 26.3061 75.405 27.152L65.45 33.1703C63.3325 34.4461 60.5962 33.725 59.3725 31.5617L48.1662 11.7871C49.6375 10.5668 50.6 8.73633 50.6 6.65625C50.6 2.98145 47.6437 0 44 0C40.3563 0 37.4 2.98145 37.4 6.65625C37.4 8.73633 38.3625 10.5668 39.8338 11.7871L28.6275 31.5617C27.4037 33.725 24.6538 34.4461 22.55 33.1703L12.6087 27.152C12.98 26.3199 13.2137 25.3908 13.2137 24.4062C13.2137 20.7314 10.2575 17.75 6.61375 17.75C2.97 17.75 0 20.7314 0 24.4062C0 28.0811 2.95625 31.0625 6.6 31.0625C6.9575 31.0625 7.315 31.007 7.65875 30.9516L17.6 57.6875H70.4L80.3412 30.9516C80.685 31.007 81.0425 31.0625 81.4 31.0625C85.0438 31.0625 88 28.0811 88 24.4062C88 20.7314 85.0438 17.75 81.4 17.75Z" fill="white"/>
</g>
<path d="M63.0625 120.25C64.8125 121.625 66.2292 122.812 67.3125 123.812C68.3958 124.812 69.5625 126.104 70.8125 127.688C72.1042 129.271 73.0625 131 73.6875 132.875C74.3125 134.75 74.625 136.812 74.625 139.062C74.625 148.521 71.5417 155.479 65.375 159.938C63.0417 161.021 60.9167 161.812 59 162.312C57.125 162.771 54.8958 163 52.3125 163H12.8125V76.875H38.5C39.375 76.875 40.7292 76.8542 42.5625 76.8125C44.4375 76.7708 45.8542 76.75 46.8125 76.75C55.3125 76.75 60.9583 77.7708 63.75 79.8125C70.9167 84.7708 74.5 91.375 74.5 99.625C74.5 101.542 74.375 103.271 74.125 104.812C73.875 106.312 73.375 107.979 72.625 109.812C71.9167 111.646 70.75 113.438 69.125 115.188C67.5417 116.938 65.5208 118.625 63.0625 120.25ZM65.5 100C65.5 96.0833 64.2917 92.6667 61.875 89.75C59.5 86.7917 56.1458 85.3125 51.8125 85.3125L21.25 85.1875V116.25H39.5625C41.3125 116.25 42.6875 116.25 43.6875 116.25C44.6875 116.208 46.0208 116.146 47.6875 116.062C49.3958 115.938 50.75 115.792 51.75 115.625C52.75 115.417 53.9375 115.125 55.3125 114.75C56.7292 114.375 57.8542 113.938 58.6875 113.438C59.5625 112.896 60.4792 112.208 61.4375 111.375C62.3958 110.542 63.125 109.604 63.625 108.562C64.1667 107.521 64.6042 106.271 64.9375 104.812C65.3125 103.354 65.5 101.75 65.5 100ZM21.25 154.938L39.4375 155.188C40.3125 155.188 41.6042 155.208 43.3125 155.25C45.0208 155.292 46.3125 155.312 47.1875 155.312C48.9792 155.312 50.5208 155.271 51.8125 155.188C53.1458 155.062 54.5417 154.812 56 154.438C57.5 154.062 58.75 153.542 59.75 152.875C60.75 152.208 61.6458 151.292 62.4375 150.125C63.2708 148.917 63.875 147.5 64.25 145.875C64.6667 144 64.8958 142.125 64.9375 140.25C65.0208 138.375 64.7292 136.542 64.0625 134.75C63.4375 132.958 62.5625 131.354 61.4375 129.938C60.3542 128.521 58.8333 127.333 56.875 126.375C54.9583 125.417 52.7708 124.833 50.3125 124.625H21.25V154.938Z" fill="white"/>
<path d="M48.0625 82.5625C54.9375 78.7708 62.4375 76.875 70.5625 76.875C78.6875 76.875 86.1458 78.75 92.9375 82.5C99.7292 86.25 105.104 91.4167 109.062 98C113.021 104.542 115 111.75 115 119.625C115 125.458 113.833 131.042 111.5 136.375C109.208 141.708 106.083 146.333 102.125 150.25C98.2083 154.125 93.5 157.229 88 159.562C82.5 161.854 76.7292 163 70.6875 163C62.4792 163 54.9167 161.021 48 157.062C41.0833 153.104 35.6458 147.812 31.6875 141.188C27.7708 134.521 25.8125 127.333 25.8125 119.625C25.8125 111.833 27.7917 104.667 31.75 98.125C35.75 91.5417 41.1875 86.3542 48.0625 82.5625ZM70.3125 155.188C76.7708 155.188 82.7708 153.542 88.3125 150.25C93.8542 146.917 98.2083 142.5 101.375 137C104.583 131.5 106.188 125.583 106.188 119.25C106.188 112.958 104.625 107.208 101.5 102C98.375 96.75 94.0833 92.625 88.625 89.625C83.1667 86.5833 77.1458 85.0625 70.5625 85.0625C63.8958 85.0625 57.7917 86.5833 52.25 89.625C46.75 92.625 42.4167 96.75 39.25 102C36.0833 107.25 34.5 113.042 34.5 119.375C34.5 125.667 36.1042 131.583 39.3125 137.125C42.5208 142.625 46.875 147.021 52.375 150.312C57.9167 153.562 63.8958 155.188 70.3125 155.188Z" fill="white"/>
<defs>
<clipPath id="clip0_4_331">
<rect width="88" height="71" fill="white"/>
</clipPath>
</defs>
</svg>
